<?xml version="1.0" encoding="UTF-8" standalone="no"?>
<!DOCTYPE svg PUBLIC "-//W3C//DTD SVG 1.1//EN" "http://www.w3.org/Graphics/SVG/1.1/DTD/svg11.dtd">
<!-- Created with Vectornator (http://vectornator.io/) -->
<svg height="100%" stroke-miterlimit="10" style="fill-rule:nonzero;clip-rule:evenodd;stroke-linecap:round;stroke-linejoin:round;" version="1.1" viewBox="2.98276 0 611.592 406.733" width="100%" xml:space="preserve" xmlns="http://www.w3.org/2000/svg" xmlns:vectornator="http://vectornator.io" xmlns:xlink="http://www.w3.org/1999/xlink">
<defs/>
<g id="Capa-1" vectornator:layerName="Capa 1">
<path d="M2.98276 203.367C2.98276 91.0503 139.892 0 308.779 0C477.665 0 614.575 91.0503 614.575 203.367C614.575 315.683 477.665 406.733 308.779 406.733C139.892 406.733 2.98276 315.683 2.98276 203.367Z" fill="#000002" fill-rule="nonzero" opacity="1" stroke="none" vectornator:layerName="Óvalo 1"/>
<g fill="#ffffff" opacity="1" stroke="none" vectornator:layerName="Texto 1">
<path d="M75.5246 284.131C75.5246 285.1 76.1167 285.585 77.3008 285.585L77.3008 287.038L64.8671 287.038L64.8671 285.585C65.2439 285.585 65.5803 285.464 65.8763 285.221C66.1723 284.979 66.3204 284.616 66.3204 284.131L66.3204 251.997L52.9985 251.997C52.5141 251.997 52.0431 252.132 51.5856 252.401C51.128 252.67 50.8993 253.181 50.8993 253.935L49.446 253.935L49.446 242.632L50.8993 242.632C50.8993 243.385 51.128 243.897 51.5856 244.166C52.0431 244.435 52.5141 244.569 52.9985 244.569L88.8465 244.569C89.3309 244.569 89.8019 244.435 90.2594 244.166C90.7169 243.897 90.9457 243.385 90.9457 242.632L92.399 242.632L92.399 253.935L90.9457 253.935C90.9457 253.181 90.7169 252.67 90.2594 252.401C89.8019 252.132 89.3309 251.997 88.8465 251.997L75.5246 251.997L75.5246 284.131Z"/>
<path d="M124.049 266.853C129.323 266.853 131.961 265.185 131.961 261.847C131.961 260.502 131.328 259.439 130.064 258.658C128.799 257.878 126.794 257.488 124.049 257.488L111.292 257.488L111.292 266.853L124.049 266.853ZM124.21 251.513C129.001 251.513 132.741 252.307 135.433 253.895C138.124 255.483 139.47 258.187 139.47 262.009C139.47 263.462 139.201 264.754 138.662 265.884C138.124 267.015 137.411 267.997 136.523 268.831C135.635 269.666 134.652 270.338 133.576 270.85C132.499 271.361 131.396 271.751 130.265 272.021L138.178 283.566C138.608 284.158 139.079 284.602 139.591 284.898C140.102 285.194 140.654 285.423 141.246 285.585L141.246 287.038L128.893 287.038L128.893 285.585C129.593 285.585 129.942 285.342 129.942 284.858C129.942 284.32 129.539 283.485 128.731 282.355L122.353 272.828L111.13 272.828L111.13 284.374C111.13 284.804 111.305 285.114 111.655 285.302C112.005 285.49 112.341 285.585 112.664 285.585L112.664 287.038L101.926 287.038L101.926 285.585C102.895 285.585 103.379 285.181 103.379 284.374L103.379 254.177C103.379 253.37 102.895 252.966 101.926 252.966L101.926 251.513L124.21 251.513Z"/>
<path d="M173.138 272.182L166.598 258.618L160.865 272.182L173.138 272.182ZM146.171 285.585C146.817 285.477 147.342 285.167 147.745 284.656C148.149 284.145 148.459 283.674 148.674 283.243L160.704 257.003C161.027 256.25 161.283 255.644 161.471 255.186C161.659 254.729 161.754 254.285 161.754 253.854C161.754 253.531 161.686 253.33 161.552 253.249C161.417 253.168 161.269 253.074 161.108 252.966L161.108 251.513L173.299 251.513L173.299 252.966C173.138 253.074 172.963 253.155 172.774 253.208C172.586 253.262 172.492 253.478 172.492 253.854C172.492 254.177 172.613 254.567 172.855 255.025C173.097 255.483 173.353 256.007 173.622 256.599L186.702 284.051C186.971 284.535 187.267 284.885 187.59 285.1C187.913 285.315 188.263 285.477 188.639 285.585L188.639 287.038L177.175 287.038L177.175 285.827C177.444 285.827 177.726 285.746 178.022 285.585C178.318 285.423 178.466 285.127 178.466 284.696C178.466 284.374 178.413 284.077 178.305 283.808C178.197 283.539 178.063 283.189 177.901 282.759L175.721 278.157L158.443 278.157L156.183 282.517C155.967 282.947 155.792 283.337 155.658 283.687C155.523 284.037 155.456 284.347 155.456 284.616C155.456 285.046 155.59 285.315 155.86 285.423C156.129 285.531 156.505 285.585 156.99 285.585L156.99 287.038L146.171 287.038L146.171 285.585Z"/>
<path d="M196.39 285.585C197.359 285.585 197.844 285.181 197.844 284.374L197.844 254.177C197.844 253.37 197.359 252.966 196.39 252.966L196.39 251.513L208.259 251.513L208.259 252.966C207.882 253.02 207.694 253.155 207.694 253.37C207.694 253.639 208.286 254.366 209.47 255.55L228.847 276.057L228.847 254.177C228.847 253.37 228.309 252.966 227.233 252.966L227.233 251.513L237.083 251.513L237.083 252.966C236.114 252.966 235.629 253.37 235.629 254.177L235.629 284.374C235.629 285.181 236.114 285.585 237.083 285.585L237.083 287.038L226.587 287.038L226.587 285.585C226.963 285.585 227.152 285.45 227.152 285.181C227.152 284.966 226.896 284.589 226.385 284.051C225.873 283.512 225.295 282.893 224.649 282.194L204.626 260.879L204.626 284.374C204.626 285.181 205.191 285.585 206.321 285.585L206.321 287.038L196.39 287.038L196.39 285.585Z"/>
<path d="M252.665 274.685C252.665 274.9 252.652 275.129 252.625 275.371C252.598 275.613 252.585 275.869 252.585 276.138C252.585 276.946 253.096 277.686 254.119 278.359C255.141 279.031 256.366 279.596 257.792 280.054C259.219 280.512 260.645 280.875 262.071 281.144C263.498 281.413 264.615 281.548 265.422 281.548C266.176 281.548 267.104 281.494 268.207 281.386C269.311 281.279 270.401 281.05 271.477 280.7C272.554 280.35 273.469 279.866 274.223 279.247C274.976 278.628 275.353 277.807 275.353 276.784C275.353 275.6 274.693 274.739 273.375 274.2C272.056 273.662 270.401 273.245 268.409 272.949C266.418 272.653 264.265 272.357 261.95 272.061C259.636 271.765 257.483 271.28 255.491 270.608C253.5 269.935 251.844 268.966 250.526 267.701C249.207 266.436 248.548 264.646 248.548 262.332C248.548 258.887 249.974 256.142 252.827 254.097C255.68 252.051 259.69 251.028 264.857 251.028C267.387 251.028 269.553 251.23 271.356 251.634C273.159 252.038 274.68 252.482 275.918 252.966C277.156 253.451 278.165 253.895 278.946 254.298C279.726 254.702 280.305 254.904 280.682 254.904C281.112 254.904 281.435 254.837 281.65 254.702C281.866 254.567 282.135 254.419 282.458 254.258L283.346 255.146L279.309 262.736L277.856 262.251C277.802 261.928 277.748 261.605 277.694 261.282C277.64 260.959 277.398 260.636 276.968 260.313C275.891 259.398 274.223 258.618 271.962 257.972C269.701 257.326 267.171 257.003 264.372 257.003C263.296 257.003 262.273 257.07 261.304 257.205C260.335 257.34 259.474 257.568 258.721 257.891C257.967 258.214 257.375 258.631 256.944 259.143C256.514 259.654 256.299 260.286 256.299 261.04C256.299 262.224 256.958 263.072 258.277 263.583C259.595 264.095 261.251 264.498 263.242 264.794C265.234 265.09 267.387 265.386 269.701 265.683C272.016 265.979 274.169 266.476 276.16 267.176C278.152 267.876 279.807 268.899 281.126 270.244C282.444 271.59 283.104 273.447 283.104 275.815C283.104 278.184 282.525 280.121 281.368 281.628C280.211 283.136 278.771 284.32 277.048 285.181C275.326 286.042 273.429 286.607 271.356 286.876C269.284 287.146 267.333 287.28 265.503 287.28C263.673 287.28 261.856 287.105 260.053 286.755C258.25 286.405 256.608 286.002 255.128 285.544C253.648 285.087 252.396 284.656 251.373 284.252C250.351 283.849 249.732 283.647 249.516 283.647C249.14 283.647 248.817 283.808 248.548 284.131L247.417 283.324L251.131 274.281L252.665 274.685Z"/>
<path d="M317.337 266.288C318.898 266.288 320.203 266.005 321.253 265.44C322.302 264.875 322.827 263.731 322.827 262.009C322.827 260.34 322.302 259.17 321.253 258.497C320.203 257.824 318.898 257.488 317.337 257.488L303.773 257.488L303.773 266.288L317.337 266.288ZM296.022 254.177C296.022 253.37 295.349 252.966 294.004 252.966L294.004 251.513L317.498 251.513C321.858 251.513 325.128 252.293 327.308 253.854C329.488 255.415 330.578 258.133 330.578 262.009C330.578 265.884 329.488 268.562 327.308 270.042C325.128 271.523 321.858 272.263 317.498 272.263L303.773 272.263L303.773 284.374C303.773 285.181 304.338 285.585 305.468 285.585L305.468 287.038L294.004 287.038L294.004 285.585C295.349 285.585 296.022 285.181 296.022 284.374L296.022 254.177Z"/>
<path d="M358.11 257.003C356.388 257.003 354.706 257.286 353.064 257.851C351.422 258.416 349.955 259.223 348.664 260.273C347.372 261.323 346.336 262.601 345.555 264.108C344.775 265.615 344.384 267.338 344.384 269.275C344.384 271.213 344.775 272.936 345.555 274.443C346.336 275.95 347.372 277.228 348.664 278.278C349.955 279.327 351.422 280.135 353.064 280.7C354.706 281.265 356.388 281.548 358.11 281.548C359.832 281.548 361.515 281.265 363.156 280.7C364.798 280.135 366.265 279.327 367.556 278.278C368.848 277.228 369.884 275.95 370.665 274.443C371.445 272.936 371.836 271.213 371.836 269.275C371.836 267.338 371.445 265.615 370.665 264.108C369.884 262.601 368.848 261.323 367.556 260.273C366.265 259.223 364.798 258.416 363.156 257.851C361.515 257.286 359.832 257.003 358.11 257.003ZM358.11 251.028C361.07 251.028 363.856 251.405 366.466 252.159C369.077 252.912 371.351 254.043 373.289 255.55C375.227 257.057 376.761 258.954 377.891 261.242C379.021 263.529 379.587 266.207 379.587 269.275C379.587 272.343 379.021 275.021 377.891 277.309C376.761 279.596 375.227 281.494 373.289 283.001C371.351 284.508 369.077 285.598 366.466 286.271C363.856 286.944 361.07 287.28 358.11 287.28C355.15 287.28 352.364 286.944 349.754 286.271C347.143 285.598 344.869 284.508 342.931 283.001C340.993 281.494 339.459 279.596 338.329 277.309C337.199 275.021 336.634 272.343 336.634 269.275C336.634 266.207 337.199 263.529 338.329 261.242C339.459 258.954 340.993 257.057 342.931 255.55C344.869 254.043 347.143 252.912 349.754 252.159C352.364 251.405 355.15 251.028 358.11 251.028Z"/>
<path d="M411.236 266.853C416.511 266.853 419.148 265.185 419.148 261.847C419.148 260.502 418.516 259.439 417.251 258.658C415.986 257.878 413.981 257.488 411.236 257.488L398.479 257.488L398.479 266.853L411.236 266.853ZM411.398 251.513C416.188 251.513 419.929 252.307 422.62 253.895C425.312 255.483 426.657 258.187 426.657 262.009C426.657 263.462 426.388 264.754 425.85 265.884C425.312 267.015 424.598 267.997 423.71 268.831C422.822 269.666 421.84 270.338 420.763 270.85C419.687 271.361 418.583 271.751 417.453 272.021L425.365 283.566C425.796 284.158 426.267 284.602 426.778 284.898C427.29 285.194 427.841 285.423 428.433 285.585L428.433 287.038L416.08 287.038L416.08 285.585C416.78 285.585 417.13 285.342 417.13 284.858C417.13 284.32 416.726 283.485 415.919 282.355L409.541 272.828L398.318 272.828L398.318 284.374C398.318 284.804 398.493 285.114 398.843 285.302C399.193 285.49 399.529 285.585 399.852 285.585L399.852 287.038L389.114 287.038L389.114 285.585C390.083 285.585 390.567 285.181 390.567 284.374L390.567 254.177C390.567 253.37 390.083 252.966 389.114 252.966L389.114 251.513L411.398 251.513Z"/>
<path d="M447.246 285.585C447.515 285.585 447.784 285.49 448.053 285.302C448.322 285.114 448.457 284.804 448.457 284.374L448.457 257.488L437.961 257.488C437.53 257.488 437.126 257.595 436.75 257.811C436.373 258.026 436.184 258.376 436.184 258.86L434.731 258.86L434.731 249.575L436.184 249.575C436.184 250.329 436.373 250.84 436.75 251.109C437.126 251.378 437.53 251.513 437.961 251.513L466.704 251.513C467.134 251.513 467.538 251.378 467.915 251.109C468.291 250.84 468.48 250.329 468.48 249.575L469.933 249.575L469.933 258.86L468.48 258.86C468.48 258.376 468.291 258.026 467.915 257.811C467.538 257.595 467.134 257.488 466.704 257.488L456.208 257.488L456.208 284.374C456.208 285.181 456.692 285.585 457.661 285.585L457.661 287.038L447.246 287.038L447.246 285.585Z"/>
<path d="M510.302 259.022C510.302 257.999 509.468 257.488 507.8 257.488L488.099 257.488L488.099 265.561L500.533 265.561C501.448 265.561 502.121 265.494 502.552 265.36C502.982 265.225 503.197 264.862 503.197 264.27L504.651 264.27L504.651 272.828L503.036 272.828C503.197 272.236 502.982 271.872 502.39 271.738C501.798 271.603 500.964 271.536 499.887 271.536L488.099 271.536L488.099 281.063L508.768 281.063C509.414 281.063 509.953 280.915 510.383 280.619C510.814 280.323 511.029 279.933 511.029 279.448L512.482 279.448L512.482 287.926L511.029 287.926C511.029 287.442 510.814 287.172 510.383 287.119C509.953 287.065 509.414 287.038 508.768 287.038L479.137 287.038L479.137 285.585C479.406 285.585 479.676 285.49 479.945 285.302C480.214 285.114 480.348 284.804 480.348 284.374L480.348 254.177C480.348 253.747 480.214 253.437 479.945 253.249C479.676 253.06 479.406 252.966 479.137 252.966L479.137 251.513L507.8 251.513C509.468 251.513 510.302 251.028 510.302 250.06L511.756 250.06L511.756 259.022L510.302 259.022Z"/>
<path d="M527.5 273.716L528.307 274.12C528.307 274.604 528.415 275.035 528.63 275.412C529.007 276.057 529.747 276.69 530.85 277.309C531.954 277.928 533.219 278.48 534.645 278.964C536.072 279.448 537.565 279.839 539.126 280.135C540.687 280.431 542.087 280.579 543.325 280.579C544.24 280.579 545.424 280.512 546.877 280.377C548.33 280.242 549.757 279.96 551.156 279.529C552.556 279.099 553.767 278.507 554.79 277.753C555.812 276.999 556.324 276.004 556.324 274.766C556.324 273.528 555.853 272.613 554.911 272.021C553.969 271.428 552.731 270.998 551.197 270.729C549.663 270.46 547.913 270.285 545.949 270.204C543.984 270.123 541.979 270.002 539.934 269.841C537.888 269.679 535.883 269.41 533.919 269.033C531.954 268.656 530.205 268.024 528.671 267.136C527.136 266.248 525.899 265.037 524.957 263.503C524.015 261.969 523.544 259.964 523.544 257.488C523.544 255.819 523.934 254.177 524.714 252.562C525.495 250.948 526.692 249.521 528.307 248.283C529.922 247.045 531.967 246.036 534.443 245.256C536.919 244.475 539.826 244.085 543.163 244.085C546.016 244.085 548.492 244.3 550.591 244.731C552.69 245.161 554.507 245.619 556.041 246.103C557.575 246.588 558.867 247.045 559.916 247.476C560.966 247.907 561.841 248.122 562.54 248.122C563.294 248.122 563.832 247.96 564.155 247.637L565.124 248.283L559.553 258.376L558.746 258.053C558.638 257.299 558.423 256.68 558.1 256.196C557.669 255.55 556.956 254.917 555.96 254.298C554.964 253.679 553.794 253.128 552.448 252.643C551.102 252.159 549.649 251.769 548.088 251.473C546.527 251.176 544.966 251.028 543.405 251.028C542.221 251.028 540.997 251.123 539.732 251.311C538.467 251.499 537.323 251.782 536.3 252.159C535.278 252.536 534.43 253.033 533.757 253.652C533.084 254.271 532.748 255.038 532.748 255.954C532.748 257.245 533.219 258.214 534.161 258.86C535.103 259.506 536.341 259.99 537.875 260.313C539.409 260.636 541.158 260.852 543.123 260.959C545.087 261.067 547.092 261.202 549.138 261.363C551.183 261.524 553.188 261.807 555.153 262.211C557.117 262.614 558.867 263.26 560.401 264.148C561.935 265.037 563.173 266.234 564.115 267.741C565.057 269.248 565.528 271.213 565.528 273.635C565.528 276.434 564.788 278.722 563.307 280.498C561.827 282.274 559.984 283.674 557.777 284.696C555.57 285.719 553.188 286.405 550.631 286.755C548.075 287.105 545.693 287.28 543.486 287.28C540.418 287.28 537.848 287.105 535.776 286.755C533.703 286.405 531.981 285.975 530.608 285.464C529.236 284.952 528.146 284.495 527.338 284.091C526.531 283.687 525.831 283.485 525.239 283.485C524.862 283.485 524.512 283.701 524.19 284.131L523.059 283.485L527.5 273.716Z"/>
<path d="M219.241 311.342L219.241 312.176C217.09 312.498 215.54 313.233 214.59 314.38C214.16 314.9 213.86 315.545 213.689 316.316C213.519 317.086 213.434 318.162 213.434 319.542L213.434 340.054C213.434 341.398 213.51 342.455 213.662 343.226C213.815 343.996 214.088 344.633 214.482 345.135C215.289 346.156 216.821 346.667 219.079 346.667L219.644 346.667C220.845 346.667 222.019 346.483 223.166 346.116C224.313 345.748 225.482 345.157 226.674 344.341C227.866 343.526 229.075 342.5 230.303 341.263C231.531 340.027 232.79 338.566 234.08 336.881L234.914 336.881L231.688 348.038L201.955 348.038L201.955 347.205C203.89 346.882 205.297 346.138 206.175 344.973C206.856 344.113 207.197 342.401 207.197 339.839L207.197 319.542C207.197 317.911 207.107 316.728 206.928 315.993C206.749 315.258 206.417 314.631 205.933 314.111C205.037 313.108 203.711 312.462 201.955 312.176L201.955 311.342L219.241 311.342ZM229.779 346.667L231.231 341.667C229.474 343.763 227.386 345.43 224.967 346.667L229.779 346.667ZM205.718 346.667L213.568 346.667L212.52 345.887C211.911 345.439 211.521 345.081 211.35 344.812C211.18 344.543 211.095 344.14 211.095 343.602C211.095 343.315 211.091 343.123 211.082 343.024C211.073 342.926 211.068 342.823 211.068 342.715L211.068 342.258L211.068 317.122L211.068 316.665C211.068 316.558 211.073 316.45 211.082 316.343C211.091 316.235 211.095 316.047 211.095 315.778C211.095 315.24 211.189 314.824 211.377 314.528C211.566 314.232 211.946 313.887 212.52 313.493L214.052 312.364L205.261 312.364L206.767 313.493C207.394 313.941 207.788 314.29 207.95 314.541C208.111 314.792 208.192 315.204 208.192 315.778C208.21 316.083 208.219 316.378 208.219 316.665L208.219 317.122L208.219 342.258L208.219 342.715C208.219 343.002 208.21 343.297 208.192 343.602C208.192 344.158 208.111 344.565 207.95 344.825C207.788 345.085 207.394 345.439 206.767 345.887L205.718 346.667Z"/>
<path d="M233.584 337.016C233.584 334.937 234.144 333.006 235.264 331.222C236.384 329.439 237.898 328.032 239.807 327.002C241.716 325.971 243.808 325.456 246.084 325.456C247.787 325.456 249.391 325.747 250.897 326.33C252.402 326.912 253.728 327.737 254.875 328.803C256.022 329.869 256.914 331.115 257.55 332.54C258.186 333.965 258.505 335.457 258.505 337.016C258.505 339.077 257.953 341.003 256.851 342.796C255.749 344.588 254.244 345.999 252.335 347.03C250.426 348.06 248.352 348.576 246.111 348.576C243.835 348.576 241.738 348.065 239.821 347.043C237.903 346.022 236.384 344.619 235.264 342.836C234.144 341.053 233.584 339.113 233.584 337.016ZM239.471 336.854C239.471 338.414 239.628 339.847 239.942 341.156C240.255 342.464 240.708 343.58 241.299 344.503C241.891 345.426 242.594 346.138 243.41 346.64C244.225 347.142 245.117 347.393 246.084 347.393C247.034 347.393 247.921 347.137 248.746 346.627C249.57 346.116 250.269 345.408 250.843 344.503C251.416 343.598 251.86 342.482 252.174 341.156C252.487 339.83 252.644 338.396 252.644 336.854C252.644 334.793 252.371 332.965 251.824 331.37C251.277 329.775 250.507 328.539 249.512 327.66C248.517 326.782 247.366 326.343 246.058 326.343C244.068 326.343 242.473 327.311 241.272 329.246C240.072 331.182 239.471 333.718 239.471 336.854ZM241.541 347.043C240.681 346.362 240.094 345.856 239.78 345.524C239.467 345.193 239.131 344.749 238.772 344.194C237.625 342.33 237.052 339.928 237.052 336.989C237.052 332.114 238.709 328.691 242.025 326.719C240.52 327.275 239.198 328.082 238.06 329.139C236.922 330.196 236.044 331.397 235.425 332.741C234.807 334.085 234.498 335.51 234.498 337.016C234.498 338.485 234.802 339.901 235.412 341.263C236.021 342.625 236.872 343.799 237.966 344.785C238.557 345.269 239.032 345.627 239.391 345.86C239.749 346.093 240.466 346.488 241.541 347.043ZM248.8 347.473C251.165 346.434 252.971 345.014 254.217 343.212C255.462 341.411 256.085 339.346 256.085 337.016C256.085 334.632 255.48 332.508 254.27 330.644C253.061 328.781 251.452 327.463 249.445 326.693C252.187 328.7 253.558 332.114 253.558 336.935C253.558 339.373 253.213 341.407 252.523 343.038C251.833 344.669 250.735 346.04 249.23 347.151L248.8 347.473Z"/>
<path d="M274.004 326.773L275.133 333.01L274.407 333.01C273.869 330.967 273.022 329.359 271.866 328.185C270.71 327.011 269.38 326.424 267.874 326.424C266.978 326.424 266.23 326.688 265.629 327.217C265.029 327.746 264.729 328.395 264.729 329.166C264.729 329.883 264.966 330.47 265.441 330.927C265.916 331.384 266.987 332.069 268.654 332.983C271.378 334.471 273.278 335.645 274.353 336.505C276.056 337.813 276.907 339.516 276.907 341.613C276.907 342.67 276.701 343.62 276.289 344.462C275.876 345.305 275.267 346.04 274.461 346.667C273.654 347.294 272.695 347.774 271.584 348.105C270.473 348.437 269.263 348.602 267.955 348.602C265.786 348.602 263.188 348.11 260.159 347.124L259.513 338.951L260.159 338.951C261.772 344.525 264.281 347.312 267.686 347.312C268.887 347.312 269.877 346.954 270.657 346.237C271.436 345.52 271.826 344.579 271.826 343.414C271.826 342.231 271.369 341.281 270.455 340.564C269.917 340.134 268.591 339.337 266.476 338.172C264.361 337.007 262.91 336.093 262.121 335.43C260.849 334.372 260.212 333.028 260.212 331.397C260.212 329.641 260.898 328.211 262.269 327.109C263.64 326.007 265.41 325.456 267.578 325.456C269.299 325.456 271.441 325.895 274.004 326.773ZM269.783 347.581C271.396 347.366 272.659 346.801 273.573 345.887C274.487 344.973 274.944 343.808 274.944 342.392C274.944 340.994 274.425 339.758 273.385 338.683C272.489 337.733 270.76 336.586 268.197 335.241C266.082 334.094 264.662 333.171 263.936 332.472C263.21 331.774 262.847 330.967 262.847 330.053C262.847 328.673 263.627 327.445 265.186 326.37C263.878 326.8 262.869 327.445 262.161 328.306C261.454 329.166 261.1 330.161 261.1 331.29C261.1 332.616 261.566 333.7 262.497 334.543C263.214 335.206 264.657 336.147 266.826 337.365C269.174 338.638 270.67 339.57 271.315 340.161C272.265 341.021 272.74 342.097 272.74 343.387C272.74 345.412 271.754 346.81 269.783 347.581ZM260.938 346.425L261.422 346.586C262.121 346.855 262.928 347.097 263.842 347.312L264.433 347.446C263.591 346.891 262.901 346.331 262.363 345.766C261.825 345.202 261.261 344.445 260.669 343.495L260.938 346.425Z"/>
<path d="M311.615 311.342L311.615 312.176C309.464 312.498 307.914 313.233 306.964 314.38C306.534 314.9 306.234 315.545 306.063 316.316C305.893 317.086 305.808 318.162 305.808 319.542L305.808 340.054C305.808 341.398 305.884 342.455 306.037 343.226C306.189 343.996 306.462 344.633 306.857 345.135C307.663 346.156 309.195 346.667 311.454 346.667L312.018 346.667C313.219 346.667 314.393 346.483 315.54 346.116C316.687 345.748 317.856 345.157 319.048 344.341C320.24 343.526 321.45 342.5 322.677 341.263C323.905 340.027 325.164 338.566 326.454 336.881L327.288 336.881L324.062 348.038L294.329 348.038L294.329 347.205C296.265 346.882 297.671 346.138 298.55 344.973C299.231 344.113 299.571 342.401 299.571 339.839L299.571 319.542C299.571 317.911 299.482 316.728 299.302 315.993C299.123 315.258 298.792 314.631 298.308 314.111C297.412 313.108 296.085 312.462 294.329 312.176L294.329 311.342L311.615 311.342ZM322.153 346.667L323.605 341.667C321.848 343.763 319.761 345.43 317.341 346.667L322.153 346.667ZM298.093 346.667L305.942 346.667L304.894 345.887C304.285 345.439 303.895 345.081 303.725 344.812C303.554 344.543 303.469 344.14 303.469 343.602C303.469 343.315 303.465 343.123 303.456 343.024C303.447 342.926 303.442 342.823 303.442 342.715L303.442 342.258L303.442 317.122L303.442 316.665C303.442 316.558 303.447 316.45 303.456 316.343C303.465 316.235 303.469 316.047 303.469 315.778C303.469 315.24 303.563 314.824 303.752 314.528C303.94 314.232 304.321 313.887 304.894 313.493L306.426 312.364L297.636 312.364L299.141 313.493C299.768 313.941 300.163 314.29 300.324 314.541C300.485 314.792 300.566 315.204 300.566 315.778C300.584 316.083 300.593 316.378 300.593 316.665L300.593 317.122L300.593 342.258L300.593 342.715C300.593 343.002 300.584 343.297 300.566 343.602C300.566 344.158 300.485 344.565 300.324 344.825C300.163 345.085 299.768 345.439 299.141 345.887L298.093 346.667Z"/>
<path d="M339.722 345.538C337.518 347.402 335.152 348.334 332.625 348.334C330.6 348.334 328.982 347.809 327.773 346.761C326.563 345.713 325.958 344.337 325.958 342.634C325.958 340.215 327.141 338.315 329.507 336.935C331.872 335.555 335.277 334.775 339.722 334.596L339.722 333.844L339.722 333.467C339.722 332.069 339.659 330.927 339.534 330.04C339.409 329.152 339.229 328.485 338.996 328.037C338.727 327.517 338.347 327.1 337.854 326.787C337.361 326.473 336.828 326.316 336.254 326.316C335.412 326.316 334.749 326.59 334.265 327.136C333.781 327.683 333.476 328.53 333.351 329.677C333.207 330.806 332.974 331.572 332.652 331.975C332.329 332.378 331.774 332.58 330.985 332.58C330.376 332.58 329.865 332.365 329.453 331.935C329.041 331.505 328.834 330.949 328.834 330.268C328.834 329.354 329.166 328.525 329.829 327.781C330.492 327.038 331.411 326.451 332.585 326.021C333.759 325.59 335.044 325.375 336.442 325.375C338.253 325.375 339.839 325.738 341.201 326.464C342.563 327.19 343.575 328.198 344.239 329.488C344.597 330.152 344.852 330.895 345.005 331.72C345.157 332.544 345.233 333.682 345.233 335.134L345.233 342.876C345.233 344.364 345.453 345.421 345.892 346.049C346.331 346.676 347.16 347.097 348.379 347.312L348.379 348.038L339.722 348.038L339.722 345.538ZM339.722 344.355L339.722 335.457C337.984 335.725 336.492 336.173 335.246 336.801C334 337.428 333.046 338.226 332.383 339.193C331.72 340.161 331.388 341.227 331.388 342.392C331.388 343.575 331.742 344.557 332.45 345.336C333.158 346.116 334.05 346.506 335.125 346.506C336.451 346.506 337.984 345.789 339.722 344.355ZM340.636 346.855L344.615 346.855L343.997 346.371C343.997 346.371 343.983 346.358 343.956 346.331C343.929 346.304 343.907 346.29 343.889 346.29L343.54 346.022C343.271 345.753 343.136 345.412 343.136 345L343.136 344.462L343.109 344.194L343.109 335.053C343.109 332.562 342.823 330.698 342.249 329.462C341.443 327.813 340.179 326.755 338.459 326.289C339.606 327.096 340.278 328.377 340.475 330.134C340.582 331.209 340.636 332.876 340.636 335.134L340.636 346.855ZM333.808 347.581C330.761 346.954 329.238 345.287 329.238 342.581C329.238 340.824 329.946 339.319 331.361 338.064C331.989 337.509 333.198 336.801 334.991 335.94C332.822 336.353 331.137 336.917 329.937 337.634C327.894 338.889 326.872 340.546 326.872 342.607C326.872 344.095 327.414 345.3 328.498 346.223C329.583 347.146 330.985 347.608 332.706 347.608C333.118 347.608 333.485 347.599 333.808 347.581ZM333.808 326.343C332.553 326.666 331.545 327.19 330.783 327.916C330.022 328.642 329.641 329.453 329.641 330.349C329.641 330.689 329.722 330.958 329.883 331.155C330.044 331.352 330.259 331.451 330.528 331.451C330.779 331.451 330.967 331.375 331.093 331.222C331.218 331.07 331.326 330.761 331.415 330.295C331.612 329.291 331.868 328.534 332.181 328.023C332.495 327.513 333.037 326.952 333.808 326.343Z"/>
<path d="M355.248 341.183C354.567 341.864 354.114 342.379 353.89 342.728C353.666 343.078 353.554 343.477 353.554 343.925C353.554 344.749 354.128 345.242 355.275 345.403C355.848 345.475 356.691 345.511 357.802 345.511L362.91 345.511C365.652 345.511 367.605 345.789 368.77 346.344C369.577 346.739 370.276 347.263 370.867 347.917C371.459 348.571 371.911 349.319 372.225 350.162C372.538 351.004 372.695 351.909 372.695 352.877C372.695 354.83 372.149 356.573 371.055 358.106C369.962 359.638 368.416 360.825 366.418 361.668C364.42 362.51 362.166 362.931 359.657 362.931C356.27 362.931 353.536 362.268 351.458 360.942C349.379 359.616 348.339 357.877 348.339 355.727C348.339 354.597 348.626 353.58 349.199 352.675C349.773 351.77 350.732 350.816 352.076 349.812C351.449 349.221 351.014 348.688 350.772 348.213C350.53 347.738 350.409 347.196 350.409 346.586C350.409 345.995 350.503 345.457 350.691 344.973C350.88 344.489 351.238 343.952 351.767 343.36C352.295 342.769 353.062 342.025 354.065 341.129L354.495 340.753C352.972 339.874 351.856 338.88 351.148 337.768C350.44 336.657 350.086 335.367 350.086 333.897C350.086 332.338 350.49 330.931 351.296 329.677C352.103 328.422 353.236 327.427 354.697 326.693C356.158 325.958 357.874 325.537 359.845 325.429C360.257 323.619 360.853 322.32 361.633 321.531C362.412 320.742 363.465 320.348 364.792 320.348C365.58 320.348 366.337 320.505 367.063 320.819C367.789 321.132 368.367 321.549 368.797 322.069C369.227 322.588 369.442 323.144 369.442 323.735C369.442 324.309 369.259 324.788 368.891 325.174C368.524 325.559 368.071 325.752 367.534 325.752C367.122 325.752 366.718 325.626 366.324 325.375C365.93 325.124 365.625 324.811 365.41 324.434L365.007 323.655C364.559 322.795 363.958 322.364 363.206 322.364C361.951 322.364 361.135 323.386 360.759 325.429C362.175 325.483 363.47 325.734 364.644 326.182C365.818 326.63 366.839 327.217 367.708 327.943C368.578 328.669 369.245 329.529 369.711 330.523C370.177 331.518 370.41 332.589 370.41 333.736C370.41 335.259 369.958 336.702 369.053 338.064C368.148 339.426 366.942 340.502 365.437 341.29C363.931 342.079 362.291 342.473 360.517 342.473C358.904 342.473 357.148 342.043 355.248 341.183ZM365.007 333.628C365.007 331.317 364.594 329.506 363.77 328.198C362.946 326.89 361.825 326.236 360.41 326.236C358.922 326.236 357.735 326.935 356.848 328.332C355.96 329.73 355.517 331.594 355.517 333.924C355.517 336.182 355.951 337.993 356.821 339.355C357.69 340.717 358.841 341.398 360.275 341.398C361.745 341.398 362.901 340.699 363.743 339.301C364.586 337.903 365.007 336.012 365.007 333.628ZM353.178 350.538C351.601 351.918 350.812 353.459 350.812 355.162C350.812 356.417 351.202 357.55 351.982 358.563C352.761 359.575 353.855 360.364 355.261 360.928C356.668 361.493 358.259 361.775 360.033 361.775C361.413 361.775 362.717 361.587 363.945 361.211C365.172 360.834 366.239 360.319 367.144 359.665C368.049 359.011 368.748 358.258 369.241 357.407C369.734 356.555 369.98 355.637 369.98 354.651C369.98 353.522 369.617 352.63 368.891 351.976C368.165 351.322 367.175 350.986 365.921 350.968L363.851 350.888L363.179 350.888L357.936 350.888C357.058 350.888 356.243 350.861 355.49 350.807C354.666 350.789 353.895 350.699 353.178 350.538ZM370.141 357.098C370.984 355.897 371.405 354.705 371.405 353.522C371.405 351.981 370.966 350.69 370.088 349.651C369.425 348.862 368.649 348.311 367.762 347.998C366.875 347.684 365.661 347.527 364.12 347.527L360.41 347.5L357.345 347.473C356.019 347.473 354.979 347.397 354.226 347.245C353.474 347.093 352.954 346.837 352.667 346.479C352.381 346.12 352.237 345.6 352.237 344.919C352.237 344.615 352.345 344.185 352.56 343.629C352.022 344.22 351.668 344.704 351.498 345.081C351.328 345.457 351.242 345.914 351.242 346.452C351.242 347.151 351.408 347.76 351.74 348.28C352.071 348.8 352.56 349.203 353.205 349.49C353.599 349.651 354.146 349.758 354.845 349.812C355.544 349.866 356.691 349.893 358.286 349.893L361.861 349.92C364.155 349.92 365.755 349.974 366.66 350.081C367.565 350.189 368.277 350.422 368.797 350.78C370.106 351.622 370.76 352.832 370.76 354.409C370.76 355.126 370.554 356.022 370.141 357.098ZM363.34 340.941C364.917 340.224 366.109 339.278 366.915 338.105C367.722 336.931 368.125 335.555 368.125 333.978C368.125 332.293 367.691 330.801 366.821 329.502C365.952 328.203 364.801 327.275 363.367 326.719C364.263 327.526 364.899 328.467 365.276 329.542C365.652 330.618 365.84 331.953 365.84 333.548C365.84 335.268 365.647 336.693 365.262 337.822C364.877 338.951 364.236 339.991 363.34 340.941ZM356.081 340.779C354.164 339.059 353.205 336.783 353.205 333.951C353.205 330.904 354.459 328.44 356.969 326.558C355.123 327.096 353.662 328.028 352.587 329.354C351.511 330.68 350.974 332.204 350.974 333.924C350.974 335.376 351.413 336.689 352.291 337.863C353.169 339.036 354.433 340.009 356.081 340.779ZM363.501 321.558C364.111 321.773 364.577 322.024 364.899 322.311C365.222 322.597 365.526 323.019 365.813 323.574C366.118 324.058 366.355 324.385 366.526 324.555C366.696 324.726 366.906 324.811 367.157 324.811C367.659 324.811 367.91 324.551 367.91 324.031C367.91 323.619 367.735 323.216 367.386 322.821C367.036 322.427 366.584 322.105 366.028 321.854C365.473 321.603 364.899 321.477 364.308 321.477C364.128 321.477 363.86 321.504 363.501 321.558Z"/>
<path d="M372.521 337.016C372.521 334.937 373.081 333.006 374.202 331.222C375.322 329.439 376.836 328.032 378.745 327.002C380.654 325.971 382.746 325.456 385.022 325.456C386.725 325.456 388.329 325.747 389.834 326.33C391.34 326.912 392.666 327.737 393.813 328.803C394.96 329.869 395.852 331.115 396.488 332.54C397.124 333.965 397.442 335.457 397.442 337.016C397.442 339.077 396.891 341.003 395.789 342.796C394.687 344.588 393.181 345.999 391.272 347.03C389.364 348.06 387.289 348.576 385.049 348.576C382.773 348.576 380.676 348.065 378.758 347.043C376.841 346.022 375.322 344.619 374.202 342.836C373.081 341.053 372.521 339.113 372.521 337.016ZM378.409 336.854C378.409 338.414 378.566 339.847 378.879 341.156C379.193 342.464 379.645 343.58 380.237 344.503C380.828 345.426 381.532 346.138 382.347 346.64C383.163 347.142 384.054 347.393 385.022 347.393C385.972 347.393 386.859 347.137 387.684 346.627C388.508 346.116 389.207 345.408 389.78 344.503C390.354 343.598 390.798 342.482 391.111 341.156C391.425 339.83 391.582 338.396 391.582 336.854C391.582 334.793 391.308 332.965 390.762 331.37C390.215 329.775 389.444 328.539 388.45 327.66C387.455 326.782 386.304 326.343 384.995 326.343C383.006 326.343 381.411 327.311 380.21 329.246C379.009 331.182 378.409 333.718 378.409 336.854ZM380.479 347.043C379.619 346.362 379.032 345.856 378.718 345.524C378.404 345.193 378.068 344.749 377.71 344.194C376.563 342.33 375.989 339.928 375.989 336.989C375.989 332.114 377.647 328.691 380.963 326.719C379.457 327.275 378.135 328.082 376.997 329.139C375.859 330.196 374.981 331.397 374.363 332.741C373.745 334.085 373.435 335.51 373.435 337.016C373.435 338.485 373.74 339.901 374.349 341.263C374.959 342.625 375.81 343.799 376.903 344.785C377.495 345.269 377.97 345.627 378.328 345.86C378.687 346.093 379.403 346.488 380.479 347.043ZM387.737 347.473C390.103 346.434 391.909 345.014 393.154 343.212C394.4 341.411 395.023 339.346 395.023 337.016C395.023 334.632 394.418 332.508 393.208 330.644C391.998 328.781 390.39 327.463 388.383 326.693C391.125 328.7 392.496 332.114 392.496 336.935C392.496 339.373 392.151 341.407 391.461 343.038C390.771 344.669 389.673 346.04 388.167 347.151L387.737 347.473Z"/>
<path d="M412.941 326.773L414.07 333.01L413.344 333.01C412.807 330.967 411.96 329.359 410.804 328.185C409.648 327.011 408.317 326.424 406.812 326.424C405.916 326.424 405.167 326.688 404.567 327.217C403.967 327.746 403.666 328.395 403.666 329.166C403.666 329.883 403.904 330.47 404.379 330.927C404.854 331.384 405.925 332.069 407.591 332.983C410.316 334.471 412.215 335.645 413.291 336.505C414.993 337.813 415.845 339.516 415.845 341.613C415.845 342.67 415.638 343.62 415.226 344.462C414.814 345.305 414.205 346.04 413.398 346.667C412.592 347.294 411.633 347.774 410.522 348.105C409.411 348.437 408.201 348.602 406.892 348.602C404.724 348.602 402.125 348.11 399.096 347.124L398.451 338.951L399.096 338.951C400.709 344.525 403.218 347.312 406.624 347.312C407.824 347.312 408.815 346.954 409.594 346.237C410.374 345.52 410.764 344.579 410.764 343.414C410.764 342.231 410.307 341.281 409.393 340.564C408.855 340.134 407.529 339.337 405.414 338.172C403.299 337.007 401.847 336.093 401.059 335.43C399.786 334.372 399.15 333.028 399.15 331.397C399.15 329.641 399.836 328.211 401.207 327.109C402.578 326.007 404.348 325.456 406.516 325.456C408.237 325.456 410.378 325.895 412.941 326.773ZM408.721 347.581C410.334 347.366 411.597 346.801 412.511 345.887C413.425 344.973 413.882 343.808 413.882 342.392C413.882 340.994 413.362 339.758 412.323 338.683C411.427 337.733 409.697 336.586 407.134 335.241C405.02 334.094 403.599 333.171 402.873 332.472C402.148 331.774 401.785 330.967 401.785 330.053C401.785 328.673 402.564 327.445 404.123 326.37C402.815 326.8 401.807 327.445 401.099 328.306C400.391 329.166 400.037 330.161 400.037 331.29C400.037 332.616 400.503 333.7 401.435 334.543C402.152 335.206 403.595 336.147 405.763 337.365C408.111 338.638 409.608 339.57 410.253 340.161C411.203 341.021 411.678 342.097 411.678 343.387C411.678 345.412 410.692 346.81 408.721 347.581ZM399.876 346.425L400.36 346.586C401.059 346.855 401.865 347.097 402.779 347.312L403.371 347.446C402.528 346.891 401.838 346.331 401.301 345.766C400.763 345.202 400.199 344.445 399.607 343.495L399.876 346.425Z"/>
</g>
<g opacity="1" vectornator:layerName="Traveler">
<path d="M440.187 97.4894C447.151 97.4894 452.797 103.502 452.797 110.919C452.797 118.335 447.151 124.348 440.187 124.348C433.222 124.348 427.576 118.335 427.576 110.919C427.576 103.502 433.222 97.4894 440.187 97.4894ZM442.888 170.56L425.423 213.475C423.955 217.041 426.409 221.038 430.066 221.038L430.066 221.038C431.869 221.038 433.536 220.017 434.444 218.36L457.784 174.731C460.038 170.611 460.828 165.766 460.006 161.079L457.082 144.414L472.268 167.831C473.65 170.125 476.556 170.711 478.631 169.115L478.631 169.115C480.533 167.654 481.045 164.874 479.804 162.755L460.28 131.003C458.76 128.527 456.167 127.034 453.385 127.034L449.844 127.034C442.21 127.034 436.459 134.428 437.879 142.415L442.888 170.56Z" fill="#ffffff" fill-rule="nonzero" opacity="1" stroke="none" vectornator:layerName="path"/>
<path d="M461.514 174.758L465.857 190.72L479.779 213.356C481.095 215.497 480.669 218.352 478.793 219.95L478.793 219.95C476.735 221.701 473.723 221.293 472.147 219.045L457.458 198.106L453.781 189.334L461.514 174.758ZM472.578 160.521C473.726 159.683 475.294 159.981 476.089 161.206L486.694 177.568L495 171.417C498.273 169 502.788 169.857 505.07 173.343L519.297 195.125C520.652 197.201 521.166 199.715 520.748 202.205C520.357 204.523 519.174 206.534 517.441 207.971C515.57 203.043 511.05 199.551 505.761 199.551C502.44 199.551 499.436 200.953 497.181 203.196L471.938 164.257C471.146 163.037 471.433 161.364 472.578 160.521Z" fill="#ffffff" fill-rule="nonzero" opacity="1" stroke="none" vectornator:layerName="path"/>
<path d="M505.761 204.923C509.933 204.923 513.328 208.538 513.328 212.98C513.328 217.423 509.933 221.038 505.761 221.038C501.59 221.038 498.195 217.423 498.195 212.98C498.195 208.538 501.59 204.923 505.761 204.923ZM418.971 164.899L433.433 151.993L435.753 144.9L438.346 159.47L424.247 171.702C422.494 173.225 419.917 172.967 418.459 171.122C416.986 169.255 417.213 166.464 418.971 164.899Z" fill="#ffffff" fill-rule="nonzero" opacity="1" stroke="none" vectornator:layerName="path"/>
</g>
<g opacity="1" vectornator:layerName="Vanpool">
<path d="M356.47 125.287C346.317 125.287 338.056 117.027 338.056 106.873C338.056 96.72 346.317 88.4596 356.47 88.4596C366.623 88.4596 374.884 96.72 374.884 106.873C374.884 117.027 366.623 125.287 356.47 125.287ZM308.595 125.287C298.441 125.287 290.181 117.027 290.181 106.873C290.181 96.72 298.441 88.4596 308.595 88.4596C318.748 88.4596 327.008 96.72 327.008 106.873C327.008 117.027 318.748 125.287 308.595 125.287ZM260.719 125.287C250.566 125.287 242.305 117.027 242.305 106.873C242.305 96.72 250.566 88.4596 260.719 88.4596C270.872 88.4596 279.133 96.72 279.133 106.873C279.133 117.027 270.872 125.287 260.719 125.287ZM330.691 88.4596C322.567 88.4596 315.96 81.8528 315.96 73.7287C315.96 65.6046 322.567 58.9978 330.691 58.9978C338.815 58.9978 345.422 65.6046 345.422 73.7287C345.422 81.8528 338.815 88.4596 330.691 88.4596ZM282.815 88.4596C274.691 88.4596 268.085 81.8528 268.085 73.7287C268.085 65.6046 274.691 58.9978 282.815 58.9978C290.94 58.9978 297.546 65.6046 297.546 73.7287C297.546 81.8528 290.94 88.4596 282.815 88.4596Z" fill="#ffffff" fill-rule="nonzero" opacity="1" stroke="none" vectornator:layerName="path"/>
<path d="M401.031 135.599C401.031 130.789 400.512 126.826 399.433 123.225L384.334 67.2839C381.395 55.9006 371.142 47.9496 359.416 47.9496L258.141 47.9496C246.412 47.9496 236.163 55.9006 233.216 67.2839L218.125 123.225C217.046 126.826 216.526 130.789 216.526 135.599L216.526 187.893L216.526 191.944L216.526 209.99C216.526 216.081 221.483 221.038 227.574 221.038L242.305 221.038C248.397 221.038 253.354 216.081 253.354 209.99L253.354 202.993L363.836 202.993L363.836 209.99C363.836 216.081 368.792 221.038 374.884 221.038L389.615 221.038C395.706 221.038 400.663 216.081 400.663 209.99L400.663 194.843C400.88 194.021 401.031 193.182 401.031 192.313L401.031 135.599ZM225.998 121.884L239.971 68.7938C242.107 60.8575 249.428 55.315 257.773 55.315L258.141 55.315L359.416 55.315L359.785 55.315C368.13 55.315 375.451 60.8575 377.587 68.7938L391.555 121.88C392.064 124.418 392.259 127.231 390.815 129.106C389.025 131.426 384.658 132.652 378.191 132.652L377.462 132.652L240.092 132.652L239.359 132.652C232.896 132.652 228.532 131.426 226.738 129.106C225.291 127.235 225.49 124.418 225.998 121.884ZM268.453 169.48C268.453 173.531 265.138 176.845 261.087 176.845L260.719 176.845L242.674 176.845L242.305 176.845C238.254 176.845 234.94 173.531 234.94 169.48L234.94 165.797C234.94 161.746 238.254 158.431 242.305 158.431L242.674 158.431L260.719 158.431L261.087 158.431C265.138 158.431 268.453 161.746 268.453 165.797L268.453 169.48ZM356.47 176.845C352.419 176.845 349.105 173.531 349.105 169.48L349.105 165.797C349.105 161.746 352.419 158.431 356.47 158.431L356.838 158.431L374.884 158.431L375.252 158.431C379.307 158.431 382.617 161.746 382.617 165.797L382.617 169.48C382.617 173.531 379.307 176.845 375.252 176.845L374.884 176.845L356.838 176.845L356.47 176.845Z" fill="#ffffff" fill-rule="nonzero" opacity="1" stroke="none" vectornator:layerName="path"/>
</g>
</g>
</svg>
